HIERARCHY
ROOT Hips
{
  OFFSET -0.589095 22.1471 2.58842
  CHANNELS 6 Xposition Yposition Zposition Zrotation Xrotation Yrotation
  JOINT BN_Bip01_Pelvis
  {
    OFFSET -3.49357 -5.29363 -0.000213444
    CHANNELS 6 Xposition Yposition Zposition Zrotation Xrotation Yrotation
    JOINT BN_leg_R_01
    {
      OFFSET 10.8127 -7.82778 -6.29737
      CHANNELS 6 Xposition Yposition Zposition Zrotation Xrotation Yrotation
      JOINT BN_leg_R_02
      {
        OFFSET 8.91071 0 0
        CHANNELS 6 Xposition Yposition Zposition Zrotation Xrotation Yrotation
        JOINT BN_leg_R_03
        {
          OFFSET 15.6024 0 0
          CHANNELS 6 Xposition Yposition Zposition Zrotation Xrotation Yrotation
          JOINT BN_leg_R_04
          {
            OFFSET 9.68174 0 0
            CHANNELS 6 Xposition Yposition Zposition Zrotation Xrotation Yrotation
            JOINT BN_leg_R_05
            {
              OFFSET 10.6982 0 0
              CHANNELS 6 Xposition Yposition Zposition Zrotation Xrotation Yrotation
              JOINT BN_Leg_R_05Nub
              {
                OFFSET 11.1504 0 0
                CHANNELS 6 Xposition Yposition Zposition Zrotation Xrotation Yrotation
                End Site
                {
                  OFFSET 0 0 0
                }
              }
            }
          }
        }
      }
    }
    JOINT BN_leg_R_06
    {
      OFFSET 6.51511 -7.99898 -4.29089
      CHANNELS 6 Xposition Yposition Zposition Zrotation Xrotation Yrotation
      JOINT BN_Leg_R_07
      {
        OFFSET 9.03709 0 0
        CHANNELS 6 Xposition Yposition Zposition Zrotation Xrotation Yrotation
        JOINT BN_Leg_R_08
        {
          OFFSET 18.7638 0 0
          CHANNELS 6 Xposition Yposition Zposition Zrotation Xrotation Yrotation
          JOINT BN_Leg_R_09
          {
            OFFSET 10.9666 0 0
            CHANNELS 6 Xposition Yposition Zposition Zrotation Xrotation Yrotation
            JOINT BN_Leg_R_10
            {
              OFFSET 10.8726 0 0
              CHANNELS 6 Xposition Yposition Zposition Zrotation Xrotation Yrotation
              JOINT BN_Leg_R_10Nub
              {
                OFFSET 11.2648 0 0
                CHANNELS 6 Xposition Yposition Zposition Zrotation Xrotation Yrotation
                End Site
                {
                  OFFSET 0 0 0
                }
              }
            }
          }
        }
      }
    }
    JOINT BN_Leg_R_11
    {
      OFFSET 2.71429 -8.18693 -0.209972
      CHANNELS 6 Xposition Yposition Zposition Zrotation Xrotation Yrotation
      JOINT BN_Leg_R_12
      {
        OFFSET 9.8713 0 0
        CHANNELS 6 Xposition Yposition Zposition Zrotation Xrotation Yrotation
        JOINT BN_Leg_R_13
        {
          OFFSET 21.8657 0 0
          CHANNELS 6 Xposition Yposition Zposition Zrotation Xrotation Yrotation
          JOINT BN_Leg_R_14
          {
            OFFSET 11.0011 0 0
            CHANNELS 6 Xposition Yposition Zposition Zrotation Xrotation Yrotation
            JOINT BN_Leg_R_15
            {
              OFFSET 12.8798 0 0
              CHANNELS 6 Xposition Yposition Zposition Zrotation Xrotation Yrotation
              JOINT BN_Leg_R_15Nub
              {
                OFFSET 13.0642 0 0
                CHANNELS 6 Xposition Yposition Zposition Zrotation Xrotation Yrotation
                End Site
                {
                  OFFSET 0 0 0
                }
              }
            }
          }
        }
      }
    }
    JOINT BN_Leg_L_11
    {
      OFFSET 2.7143 8.18692 -0.209982
      CHANNELS 6 Xposition Yposition Zposition Zrotation Xrotation Yrotation
      JOINT BN_Leg_L_12
      {
        OFFSET 9.87129 0 0
        CHANNELS 6 Xposition Yposition Zposition Zrotation Xrotation Yrotation
        JOINT BN_Leg_L_13
        {
          OFFSET 21.8657 0 0
          CHANNELS 6 Xposition Yposition Zposition Zrotation Xrotation Yrotation
          JOINT BN_Leg_L_14
          {
            OFFSET 11.0011 0 0
            CHANNELS 6 Xposition Yposition Zposition Zrotation Xrotation Yrotation
            JOINT BN_Leg_L_15
            {
              OFFSET 12.8798 0 0
              CHANNELS 6 Xposition Yposition Zposition Zrotation Xrotation Yrotation
              JOINT BN_Leg_L_15Nub
              {
                OFFSET 13.0642 0 0
                CHANNELS 6 Xposition Yposition Zposition Zrotation Xrotation Yrotation
                End Site
                {
                  OFFSET 0 0 0
                }
              }
            }
          }
        }
      }
    }
    JOINT BN_leg_L_06
    {
      OFFSET 6.51511 7.99896 -4.29091
      CHANNELS 6 Xposition Yposition Zposition Zrotation Xrotation Yrotation
      JOINT BN_Leg_L_07
      {
        OFFSET 9.03709 0 0
        CHANNELS 6 Xposition Yposition Zposition Zrotation Xrotation Yrotation
        JOINT BN_Leg_L_08
        {
          OFFSET 18.7638 0 0
          CHANNELS 6 Xposition Yposition Zposition Zrotation Xrotation Yrotation
          JOINT BN_Leg_L_09
          {
            OFFSET 10.9666 0 0
            CHANNELS 6 Xposition Yposition Zposition Zrotation Xrotation Yrotation
            JOINT BN_Leg_L_10
            {
              OFFSET 10.8726 0 0
              CHANNELS 6 Xposition Yposition Zposition Zrotation Xrotation Yrotation
              JOINT BN_Leg_L_10Nub
              {
                OFFSET 11.2649 0 0
                CHANNELS 6 Xposition Yposition Zposition Zrotation Xrotation Yrotation
                End Site
                {
                  OFFSET 0 0 0
                }
              }
            }
          }
        }
      }
    }
    JOINT BN_leg_L_01
    {
      OFFSET 10.8127 7.82776 -6.29737
      CHANNELS 6 Xposition Yposition Zposition Zrotation Xrotation Yrotation
      JOINT BN_leg_L_02
      {
        OFFSET 8.91072 0 0
        CHANNELS 6 Xposition Yposition Zposition Zrotation Xrotation Yrotation
        JOINT BN_leg_L_03
        {
          OFFSET 15.6024 0 0
          CHANNELS 6 Xposition Yposition Zposition Zrotation Xrotation Yrotation
          JOINT BN_leg_L_04
          {
            OFFSET 9.68174 0 0
            CHANNELS 6 Xposition Yposition Zposition Zrotation Xrotation Yrotation
            JOINT BN_leg_L_05
            {
              OFFSET 10.6982 0 0
              CHANNELS 6 Xposition Yposition Zposition Zrotation Xrotation Yrotation
              JOINT BN_Leg_L_05Nub
              {
                OFFSET 11.1504 0 0
                CHANNELS 6 Xposition Yposition Zposition Zrotation Xrotation Yrotation
                End Site
                {
                  OFFSET 0 0 0
                }
              }
            }
          }
        }
      }
    }
    JOINT BN_Eye_L_01
    {
      OFFSET 28.5502 2.54627 -3.93739
      CHANNELS 6 Xposition Yposition Zposition Zrotation Xrotation Yrotation
      JOINT BN_Eye_L_02
      {
        OFFSET 2.30267 0 0
        CHANNELS 6 Xposition Yposition Zposition Zrotation Xrotation Yrotation
        JOINT BN_Eye_L_03
        {
          OFFSET 5.31894 0 0
          CHANNELS 6 Xposition Yposition Zposition Zrotation Xrotation Yrotation
          JOINT BN_Eye_L_04
          {
            OFFSET 9.71244 0 0
            CHANNELS 6 Xposition Yposition Zposition Zrotation Xrotation Yrotation
            End Site
            {
              OFFSET 0 0 0
            }
          }
        }
      }
    }
    JOINT BN_Eye_R_01
    {
      OFFSET 28.5502 -2.54612 -3.93738
      CHANNELS 6 Xposition Yposition Zposition Zrotation Xrotation Yrotation
      JOINT BN_Eye_R_02
      {
        OFFSET 2.30267 0 0
        CHANNELS 6 Xposition Yposition Zposition Zrotation Xrotation Yrotation
        JOINT BN_Eye_R_03
        {
          OFFSET 5.31896 0 0
          CHANNELS 6 Xposition Yposition Zposition Zrotation Xrotation Yrotation
          JOINT BN_Eye_R_04
          {
            OFFSET 9.71244 0 0
            CHANNELS 6 Xposition Yposition Zposition Zrotation Xrotation Yrotation
            End Site
            {
              OFFSET 0 0 0
            }
          }
        }
      }
    }
    JOINT BN_Arm_L_01
    {
      OFFSET 15.9737 8.03546 -8.36195
      CHANNELS 6 Xposition Yposition Zposition Zrotation Xrotation Yrotation
      JOINT BN_Arm_L_02
      {
        OFFSET 16.8869 0 0
        CHANNELS 6 Xposition Yposition Zposition Zrotation Xrotation Yrotation
        JOINT BN_Arm_L_03
        {
          OFFSET 8.42975 0 0
          CHANNELS 6 Xposition Yposition Zposition Zrotation Xrotation Yrotation
          JOINT BN_Arm_L_04
          {
            OFFSET 7.53864 -0.0312023 2.09083
            CHANNELS 6 Xposition Yposition Zposition Zrotation Xrotation Yrotation
            End Site
            {
              OFFSET 0 0 0
            }
          }
        }
      }
    }
    JOINT BN_Arm_R_01
    {
      OFFSET 14.7806 -6.70232 -9.44366
      CHANNELS 6 Xposition Yposition Zposition Zrotation Xrotation Yrotation
      JOINT BN_Arm_R_02
      {
        OFFSET 19.9827 0 0
        CHANNELS 6 Xposition Yposition Zposition Zrotation Xrotation Yrotation
        JOINT BN_Arm_R_03
        {
          OFFSET 17.4553 0 0
          CHANNELS 6 Xposition Yposition Zposition Zrotation Xrotation Yrotation
          JOINT BN_Arm_R_04
          {
            OFFSET 13.3834 -2.22657 7.3982
            CHANNELS 6 Xposition Yposition Zposition Zrotation Xrotation Yrotation
            End Site
            {
              OFFSET 0 0 0
            }
          }
        }
      }
    }
  }
}
MOTION
Frames:	4
Frame Time:	0.0333333
0.0639013 18.7607 12.2655 -7.0501 -25.618 87.5714 -3.49325 -8.02237 2.92384e-007 -163.398 -84.4597 153.044 10.8127 -7.82778 -6.29737 -98.7823 74.7307 29.7026 8.91072 1.77636e-015 -4.76837e-007 55.248 -0.0918008 1.27729 15.6024 1.43051e-006 -3.55271e-015 -79.3777 -6.49125 -2.49735 9.68172 7.10544e-015 0 -29.024 -0.523265 -12.957 10.6982 -1.42109e-014 -4.76837e-007 -45.0932 4.11606 -1.22843 11.1504 1.42109e-014 3.55271e-015 -8.51993e-007 9.71126e-007 2.57223e-007 6.5151 -7.99897 -4.2909 -107.009 56.4587 23.4174 9.03708 4.76837e-007 0 61.2577 -1.57667 -2.44694 18.7638 -1.95399e-014 1.77636e-015 -70.6023 5.34288 7.76352 10.9665 0 1.77636e-015 -34.4553 -0.428179 -1.86628 10.8726 3.8147e-006 1.36779e-013 -32.663 -0.0150834 -3.0698 11.2648 3.8147e-006 9.53674e-007 3.72689e-007 1.01774e-007 1.06985e-007 2.71429 -8.18693 -0.209972 -130.122 51.6664 13.6708 9.87129 1.77636e-015 3.55271e-015 77.049 2.11435 -0.688931 21.8657 1.90735e-006 -9.53674e-007 -98.9642 1.9688 1.04466 11.0011 -3.8147e-006 -9.53674e-007 -11.4215 -0.372501 -0.641096 12.8798 -3.55271e-014 2.86102e-006 -18.9151 -0.0260221 0.0954336 13.0642 3.81469e-006 9.53674e-007 2.95304e-007 -5.52452e-007 6.56513e-007 2.71429 8.18692 -0.209986 128.434 -29.7502 -0.570247 9.8713 -4.76837e-007 -3.55271e-015 -86.8767 -1.98638 -0.897116 21.8657 3.8147e-006 -9.53674e-007 94.8599 -14.6805 23.5892 11.0011 0 -9.53674e-007 24.1805 0.361661 -0.962563 12.8797 3.8147e-006 5.72205e-006 34.6127 0.0319249 0.00835621 13.0642 7.6294e-006 -9.53675e-007 -3.20483e-008 9.83336e-006 6.20206e-007 6.51512 7.99896 -4.2909 89.9134 -24.2656 6.6305 9.03709 -4.44089e-015 0 -63.8729 1.46552 -2.84937 18.7638 0 -5.32907e-014 78.4417 -18.4299 20.1649 10.9666 0 1.24345e-014 45.1411 0.176617 -2.43582 10.8726 1.14441e-005 -9.53675e-007 43.3019 -0.12734 -3.49881 11.2648 2.84217e-014 3.55271e-015 -1.01129e-005 1.84857e-006 8.74333e-006 10.8127 7.82776 -6.29737 70.4472 -46.6411 9.78128 8.91071 9.53674e-007 5.32907e-015 -46.2588 0.271358 0.927321 15.6024 -1.19209e-006 -2.86102e-006 77.3645 -29.7217 35.2543 9.68173 3.55271e-015 -3.55271e-015 46.0582 1.86255 -16.8692 10.6982 -3.8147e-006 -1.03029e-013 65.3397 -4.10984 -3.53847 11.1504 -7.10543e-015 -9.53674e-007 -8.46528e-006 9.2272e-006 1.08349e-005 28.5502 2.54627 -3.93738 90.0184 -40.8393 50.421 2.30267 1.90735e-006 1.19209e-007 -71.8656 -29.3299 -15.8599 5.31894 -9.53674e-007 -2.38419e-007 -43.4057 1.73621 -4.22839 9.71242 -3.55271e-015 2.86102e-006 -19.1236 0.000433106 -5.00759 28.5502 -2.54612 -3.93738 89.9967 -39.1541 129.608 2.30267 3.55271e-015 -3.35276e-007 -62.3129 3.36568 -10.5246 5.31895 9.53675e-007 8.88179e-016 -44.1894 14.1283 17.9504 9.71243 -5.32908e-015 -4.76837e-007 -22.5646 -1.20972 9.45211 15.9737 8.03546 -8.36195 35.1871 3.39533 21.7934 16.887 -4.76837e-007 3.55271e-015 -43.3864 2.41964 -16.9807 8.42975 -1.42109e-013 2.86102e-006 -44.172 -7.41726 -2.36018 7.53864 -0.0312128 2.09083 -15.0201 -3.37007 24.5445 14.7806 -6.70232 -9.44365 -60.4894 -22.723 -5.95096 19.9827 -5.96046e-008 7.10543e-015 48.7682 -4.71153 -24.7144 17.4553 -2.27374e-013 -2.86102e-006 85.8228 11.5834 -4.15444 13.3834 -2.22655 7.39819 2.72183 29.5239 16.7442 
-0.0537157 18.9051 12.2752 -3.44422 -25.1293 88.5688 -3.49325 -8.01494 2.91592e-007 -163.395 -84.4744 153.069 10.8127 -7.82778 -6.29737 -111.579 72.0429 40.3903 8.91072 -1.77636e-015 -4.76837e-007 57.3105 -0.0457645 1.27977 15.6024 1.43051e-006 -3.55271e-015 -82.2607 -5.8236 -2.50909 9.68172 -3.55272e-015 -8.88178e-015 -27.5526 -0.397833 -12.5922 10.6982 1.42109e-014 -4.76837e-007 -43.3288 4.1151 -1.00866 11.1504 -1.42109e-014 0 -8.51993e-007 9.71126e-007 2.57223e-007 6.5151 -7.99897 -4.2909 -115.158 54.2448 30.1416 9.03708 4.76837e-007 3.55271e-015 63.6682 -1.61974 -2.52471 18.7638 -1.42109e-014 0 -73.2482 4.99333 7.51203 10.9665 0 -1.77636e-015 -33.0433 -0.446602 -1.77573 10.8726 3.8147e-006 1.29674e-013 -31.26 -0.0170553 -2.98498 11.2648 3.8147e-006 9.53674e-007 3.72689e-007 1.01774e-007 1.06985e-007 2.71429 -8.18693 -0.209972 -135.974 49.4815 18.2577 9.87129 5.32907e-015 0 77.8976 2.10392 -0.720163 21.8657 1.90735e-006 -9.53674e-007 -100.04 1.8272 0.50372 11.0011 -3.8147e-006 -9.53674e-007 -10.5706 -0.385413 -0.617097 12.8798 -2.13163e-014 2.86102e-006 -17.8327 -0.0242147 0.0959082 13.0642 3.81469e-006 9.53674e-007 2.95304e-007 -5.52452e-007 1.65651e-006 2.71429 8.18692 -0.209986 124.134 -31.2443 -4.22664 9.8713 -4.76837e-007 0 -85.9502 -2.00062 -0.864887 21.8657 3.8147e-006 -9.53674e-007 94.1633 -14.851 23.5677 11.0011 0 -9.53674e-007 24.5288 0.355245 -0.965963 12.8797 3.8147e-006 5.72205e-006 35.0372 0.0319858 0.00811947 13.0642 7.6294e-006 -9.53675e-007 -3.20483e-008 9.83336e-006 6.20206e-007 6.51512 7.99896 -4.2909 86.0007 -24.9057 3.49628 9.03709 0 -7.10543e-015 -61.9899 1.36468 -2.8926 18.7638 -1.77636e-015 -5.50671e-014 76.4618 -18.0859 19.3838 10.9666 -3.55271e-015 1.06581e-014 45.7548 0.143336 -2.44455 10.8726 1.14441e-005 -9.53675e-007 43.9168 -0.158143 -3.4902 11.2648 2.13163e-014 3.55271e-015 -1.01129e-005 1.84857e-006 8.74333e-006 10.8127 7.82776 -6.29737 65.4341 -46.8377 6.1193 8.91071 9.53674e-007 1.77636e-015 -44.0123 0.307502 0.915972 15.6024 -1.19209e-006 -2.86102e-006 74.7302 -29.31 34.271 9.68173 0 8.88178e-016 46.7856 1.90889 -17.0232 10.6982 -3.8147e-006 -1.01252e-013 66.1998 -4.10814 -3.619 11.1504 7.10543e-015 -9.53674e-007 1.55257e-006 9.2272e-006 1.81707e-006 28.5502 2.54627 -3.93738 90.0666 -40.8059 50.5076 2.30267 1.90735e-006 1.19209e-007 -80.7297 -40.6694 -20.2901 5.31894 -9.53674e-007 -2.38419e-007 -42.1253 1.58034 -4.26637 9.71242 5.32907e-015 2.86102e-006 -19.1226 0.00182386 -6.10887 28.5502 -2.54612 -3.93738 89.9967 -39.1541 129.609 2.30267 0 -3.35276e-007 -61.0936 1.83527 -9.73284 5.31895 9.53675e-007 2.66454e-015 -43.6399 15.0434 17.4403 9.71243 3.55272e-015 -4.76837e-007 -22.5628 -1.20731 9.91669 15.9737 8.03546 -8.36195 39.1206 -10.2088 22.4507 16.887 -4.76837e-007 3.55271e-015 -64.8389 8.77909 -3.3705 8.42975 0 2.86102e-006 -59.9974 -18.7704 -6.70531 7.53864 -0.0312128 2.09083 -14.9175 -3.39291 24.6713 14.7806 -6.70232 -9.44365 -62.6409 -23.7 -6.00415 19.9827 -5.96046e-008 -8.88178e-016 48.6438 -4.59382 -24.7262 17.4553 -2.27374e-013 -2.86102e-006 87.1518 11.3907 -4.78473 13.3834 -2.22655 7.39819 2.67155 29.5907 16.3182 
-0.209913 19.0921 12.2886 -1.51568 -24.3553 88.7292 -3.49325 -8.00409 2.90446e-007 -163.454 -84.5 153.042 10.8127 -7.82778 -6.29737 -117.996 69.7021 45.928 8.91072 0 -4.76837e-007 58.4648 -0.0199708 1.28043 15.6024 1.43051e-006 -1.77636e-015 -83.8331 -5.54872 -2.68565 9.68172 -1.42109e-014 -3.55271e-015 -26.5128 -0.31028 -12.334 10.6982 -1.42109e-014 -4.76837e-007 -42.0765 4.11731 -0.850235 11.1504 1.42109e-014 0 -8.51993e-007 9.71126e-007 2.57223e-007 6.5151 -7.99897 -4.2909 -119.421 52.5154 34.0365 9.03708 4.76837e-007 3.55271e-015 64.7696 -1.64033 -2.55629 18.7638 -4.44089e-015 -7.10543e-015 -74.4522 4.64617 7.13342 10.9665 3.55271e-015 -1.77636e-015 -32.1262 -0.457665 -1.71391 10.8726 3.8147e-006 1.35003e-013 -30.3504 -0.0162333 -2.92908 11.2648 3.8147e-006 9.53674e-007 3.72689e-007 1.01774e-007 1.06985e-007 2.71429 -8.18693 -0.209972 -138.433 47.7486 20.4945 9.87129 -1.77636e-015 -3.55271e-015 77.8647 2.10433 -0.718956 21.8657 1.90735e-006 -9.53674e-007 -99.8185 1.69488 0.0515183 11.0011 -3.8147e-006 -9.53674e-007 -10.4256 -0.387433 -0.613621 12.8798 -4.26325e-014 2.86102e-006 -17.6509 -0.0239102 0.0959845 13.0642 3.81469e-006 9.53674e-007 2.95304e-007 -5.52452e-007 1.65651e-006 2.71429 8.18692 -0.209986 122.21 -32.245 -6.27648 9.8713 -4.76837e-007 -7.10543e-015 -85.8616 -2.00195 -0.861794 21.8657 3.8147e-006 -9.53674e-007 94.2956 -14.6303 23.2622 11.0011 0 -9.53674e-007 24.3949 0.357909 -0.964234 12.8797 3.8147e-006 5.72205e-006 34.8743 0.0319625 0.00821037 13.0642 7.6294e-006 -9.53675e-007 -3.20483e-008 9.83336e-006 6.20206e-007 6.51512 7.99896 -4.2909 84.6233 -25.2195 2.14505 9.03709 -9.76996e-015 0 -61.6971 1.34749 -2.89825 18.7638 0 -6.03961e-014 76.0446 -17.363 18.5836 10.9666 0 1.77636e-014 45.6729 0.146714 -2.44446 10.8726 1.14441e-005 -9.53675e-007 43.8343 -0.155064 -3.49245 11.2648 2.13163e-014 -3.55271e-015 -1.01128e-005 1.84857e-006 8.74328e-006 10.8127 7.82776 -6.29737 63.747 -46.8729 4.80261 8.91071 9.53674e-007 7.10543e-015 -43.4667 0.316211 0.913002 15.6024 -1.19209e-006 -2.86102e-006 73.8032 -28.4548 33.2032 9.68173 -7.10543e-015 1.77636e-014 46.8323 1.91311 -17.0318 10.6982 -3.8147e-006 -9.59233e-014 66.2574 -4.10828 -3.62131 11.1504 -1.77636e-014 -9.53674e-007 1.55263e-006 9.2272e-006 1.81701e-006 28.5502 2.54627 -3.93738 90.1418 -40.7571 50.6421 2.30267 1.90735e-006 1.19209e-007 -81.0013 -40.478 -20.7702 5.31894 -9.53674e-007 -2.38419e-007 -41.1662 1.40881 -4.2239 9.71242 7.10543e-015 2.86102e-006 -19.1234 0.0007021 -7.19004 28.5502 -2.54612 -3.93738 89.9968 -39.1541 129.609 2.30267 0 -3.35276e-007 -59.8406 0.622797 -8.97425 5.31895 9.53675e-007 -1.77636e-015 -43.0791 15.8665 16.9372 9.71243 -5.32908e-015 -4.76837e-007 -22.562 -1.20828 10.3483 15.9737 8.03546 -8.36195 42.3064 -20.098 23.7007 16.887 -4.76837e-007 1.77636e-015 -83.6761 13.6068 7.50402 8.42975 4.9738e-014 2.86102e-006 -73.2963 -27.458 -10.6829 7.53864 -0.0312128 2.09083 -14.7739 -3.42843 24.7882 14.7806 -6.70232 -9.44365 -66.6515 -24.9342 -6.06864 19.9827 -5.96046e-008 4.44089e-015 48.0432 -4.07323 -24.7755 17.4553 -2.23821e-013 -2.86102e-006 88.696 11.2109 -5.39565 13.3834 -2.22655 7.3982 2.64538 29.651 15.4182 
-0.38941 19.3044 12.3049 0.132427 -23.4527 88.5353 -3.49325 -7.98891 2.88827e-007 -163.488 -84.531 153.055 10.8127 -7.82778 -6.29737 -122.836 67.1437 50.2724 8.91072 -5.32907e-015 -4.76837e-007 59.3843 0.00058358 1.28059 15.6024 1.43051e-006 0 -85.0627 -5.33794 -2.86668 9.68172 -1.77636e-014 1.77636e-015 -25.5762 -0.229376 -12.1024 10.6982 0 -4.76837e-007 -40.9542 4.11498 -0.709469 11.1504 7.10544e-015 -2.66454e-015 -8.51993e-007 9.71126e-007 2.57223e-007 6.5151 -7.99897 -4.2909 -122.921 50.6503 37.5441 9.03708 4.76837e-007 1.77636e-015 65.6339 -1.65942 -2.58209 18.7638 -1.77636e-015 -1.77636e-015 -75.3669 4.28478 6.69789 10.9665 0 -3.55271e-015 -31.2706 -0.465261 -1.65638 10.8726 3.8147e-006 1.33227e-013 -29.5018 -0.0167003 -2.86993 11.2648 3.8147e-006 9.53674e-007 3.72689e-007 1.01774e-007 1.06985e-007 2.71429 -8.18693 -0.209972 -140.159 45.9384 22.4088 9.87129 1.77636e-015 0 77.6092 2.10752 -0.709564 21.8657 1.90735e-006 -9.53674e-007 -99.2563 1.53896 -0.430102 11.0011 -3.8147e-006 -9.53674e-007 -10.4409 -0.387279 -0.61367 12.8798 -3.55271e-014 2.86102e-006 -17.6699 -0.0239421 0.0959766 13.0642 3.81469e-006 9.53674e-007 2.95304e-007 -5.52452e-007 1.65651e-006 2.71429 8.18692 -0.209986 120.739 -33.2978 -8.17221 9.8713 -4.76837e-007 3.55271e-015 -85.9426 -2.00073 -0.864622 21.8657 3.8147e-006 -9.53674e-007 94.6317 -14.2743 22.8202 11.0011 0 -9.53674e-007 24.1268 0.363144 -0.960928 12.8797 3.8147e-006 5.72205e-006 34.5492 0.0319154 0.00839151 13.0642 7.6294e-006 -9.53675e-007 -3.20483e-008 9.83336e-006 6.20206e-007 6.51512 7.99896 -4.2909 83.8313 -25.5705 1.04438 9.03709 -4.44089e-015 0 -61.7458 1.35049 -2.89739 18.7638 -1.77636e-015 -6.57252e-014 75.9571 -16.4646 17.6727 10.9666 0 1.42109e-014 45.4141 0.160526 -2.44105 10.8726 1.14441e-005 -9.53675e-007 43.5745 -0.141367 -3.49539 11.2648 2.13163e-014 -5.32907e-015 -9.50416e-008 1.84858e-006 7.25446e-007 10.8127 7.82776 -6.29737 62.8713 -46.9441 3.88741 8.91071 9.53674e-007 8.88178e-015 -43.4405 0.316628 0.912857 15.6024 -1.19209e-006 -2.86102e-006 73.3244 -27.3065 31.9612 9.68173 -7.10543e-015 5.32907e-015 46.6452 1.89982 -16.9921 10.6982 -3.8147e-006 -9.76996e-014 66.0338 -4.10768 -3.60277 11.1504 -3.55272e-015 -9.53674e-007 1.55263e-006 9.2272e-006 1.81706e-006 28.5502 2.54627 -3.93738 90.2466 -40.6878 50.8262 2.30267 1.90735e-006 1.19209e-007 -81.2157 -40.1721 -21.2233 5.31894 -9.53674e-007 -2.38419e-007 -40.1536 1.22301 -4.10096 9.71242 1.77636e-014 2.86102e-006 -19.1232 0.00283716 -8.26673 28.5502 -2.54612 -3.93738 89.9968 -39.1541 129.609 2.30267 -7.10543e-015 -3.35276e-007 -58.5263 -0.264909 -8.21789 5.31895 9.53675e-007 -8.88179e-016 -42.4982 16.6116 16.4346 9.71243 0 -4.76837e-007 -22.5632 -1.20668 10.7607 15.9737 8.03546 -8.36195 42.3218 -22.1044 24.034 16.887 -4.76837e-007 3.55271e-015 -87.0485 14.4504 9.38202 8.42975 5.68434e-014 2.86102e-006 -75.6601 -28.9888 -11.438 7.53864 -0.0312128 2.09083 -14.5898 -3.4768 24.9021 14.7806 -6.70232 -9.44365 -71.8951 -26.3202 -6.14035 19.9827 -5.96046e-008 -2.66453e-015 46.998 -3.2763 -24.8492 17.4553 -4.61853e-013 -2.86102e-006 90.4903 11.0286 -5.99486 13.3834 -2.22655 7.3982 2.63425 29.7086 14.2 
